<svg width="198" height="43" viewBox="0 0 198 43" fill="none" xmlns="http://www.w3.org/2000/svg">
<path d="M46.5661 6.37944L25.537 28.8946L25.4875 28.9937C24.9921 29.9845 24.4554 30.9917 23.8775 32.0155C23.2995 33.0558 22.6638 34.0631 21.9703 35.0374C21.2767 36.0281 20.5171 36.9611 19.6915 37.8363C18.8824 38.7115 17.9989 39.4711 17.0412 40.1151C16.0835 40.7756 15.0431 41.2957 13.9203 41.6755C12.7974 42.0553 11.592 42.2452 10.304 42.2452C9.11506 42.2452 7.95916 42.0388 6.83629 41.626C5.71342 41.2297 4.7144 40.6435 3.83922 39.8674C2.98056 39.0913 2.28702 38.1335 1.75861 36.9941C1.2302 35.8548 0.965998 34.5502 0.965998 33.0806C0.965998 32.4862 1.02379 31.8422 1.13938 31.1486C1.27148 30.4716 1.44487 29.7863 1.65953 29.0928C1.89071 28.3992 2.15492 27.7305 2.45215 27.0865C2.76589 26.4425 3.09615 25.8645 3.44292 25.3526C5.72168 22.017 8.90865 19.5649 13.0038 17.9962C14.6551 17.3687 16.3889 16.8898 18.2053 16.5596C20.0218 16.2293 21.929 16.0477 23.927 16.0146L22.7876 18.7888C19.0227 19.02 15.5798 19.9117 12.4589 21.4639C9.91593 22.7519 7.88485 24.4197 6.36568 26.4672C4.8465 28.5148 4.08691 30.5789 4.08691 32.6595C4.08691 33.6008 4.23553 34.4677 4.53276 35.2603C4.8465 36.0694 5.27583 36.763 5.82076 37.3409C6.38219 37.9189 7.05096 38.373 7.82706 38.7032C8.60316 39.0335 9.45357 39.1986 10.3783 39.1986C11.4186 39.1986 12.4424 39.0004 13.4497 38.6041C14.4735 38.2243 15.4642 37.6547 16.422 36.8951C17.3797 36.152 18.2797 35.2355 19.1218 34.1457C19.9805 33.0558 20.7731 31.8091 21.4996 30.4055C21.5822 30.2404 21.7061 30.001 21.8712 29.6872C22.0528 29.357 22.3088 28.8203 22.639 28.0772C22.9858 27.3342 23.4399 26.3104 24.0013 25.0059C24.5628 23.7013 25.2728 21.9758 26.1315 19.8291C27.0067 17.6824 28.0552 15.0487 29.2772 11.9277C30.4991 8.79031 31.944 5.02539 33.6118 0.63299H36.7575L27.7662 23.0739L48.82 0.806375L48.8944 0.63299H56.548L55.4086 3.53098H51.0493L40.0518 30.8266H36.4602L46.5661 6.37944ZM48.1325 31C47.5545 30.967 47.0674 30.8266 46.6711 30.5789C46.2748 30.3147 45.9528 29.9845 45.7051 29.5882C45.4739 29.1919 45.317 28.7543 45.2345 28.2754C45.1519 27.78 45.1354 27.2846 45.1849 26.7892C45.251 26.2773 45.3748 25.7902 45.5565 25.3279C45.7546 24.849 46.0188 24.4279 46.3491 24.0646H49.4205C49.0572 24.494 48.7269 24.9976 48.4297 25.5756C48.1325 26.137 47.926 26.6737 47.8105 27.1855C47.6949 27.6809 47.6949 28.102 47.8105 28.4488C47.9426 28.7955 48.2563 28.9607 48.7517 28.9442C49.2801 28.7295 49.7755 28.3992 50.2378 27.9534C50.7167 27.5075 51.1543 26.9874 51.5506 26.3929C51.9634 25.782 52.3432 25.1297 52.69 24.4362C53.0367 23.7426 53.3587 23.0491 53.656 22.3556C53.9532 21.6455 54.2174 20.9685 54.4486 20.3245C54.6963 19.664 54.9275 19.0695 55.1421 18.5411H52.1203L53.3587 15.9899H65.1241L61.6812 25.2288C61.2188 26.3517 60.9877 27.0122 60.9877 27.2103C60.9877 28.135 61.772 28.5974 63.3407 28.5974H67.1056L66.0901 31.0743H63.0187C61.8133 31.0743 60.9959 31.033 60.5666 30.9505C60.1372 30.8514 59.6997 30.6285 59.2538 30.2817C58.4282 29.6542 58.0154 28.8451 58.0154 27.8543C58.0154 27.3259 58.3704 26.2113 59.0804 24.5105L61.384 18.5411H57.6934C57.3961 19.3172 57.0741 20.1594 56.7274 21.0676C56.3806 21.9758 55.9925 22.884 55.5632 23.7922C55.1504 24.7004 54.688 25.5838 54.1761 26.4425C53.6807 27.3011 53.1276 28.0607 52.5166 28.7212C51.9056 29.3817 51.2369 29.9184 50.5103 30.3312C49.7837 30.7441 48.9911 30.967 48.1325 31ZM82.1158 27.0617C81.5213 27.9864 80.836 28.746 80.0599 29.3405C79.3003 29.9184 78.4912 30.356 77.6325 30.6532C76.7904 30.9505 75.9235 31.1238 75.0318 31.1734C74.1401 31.2229 73.2732 31.1734 72.431 31.0248C71.176 30.8101 70.2018 30.3808 69.5083 29.7368C68.8312 29.0763 68.4597 28.1433 68.3936 26.9379C68.3276 25.7159 68.5835 24.1885 69.1615 22.3556C69.7394 20.5226 70.6559 18.3017 71.9109 15.6926L75.1309 15.7174L72.6044 20.8942C73.2154 20.2997 73.9419 19.8621 74.7841 19.5814C75.6262 19.3007 76.4849 19.1768 77.3601 19.2099C78.2353 19.2429 79.0692 19.4328 79.8618 19.7796C80.6709 20.1263 81.3232 20.63 81.8185 21.2905C82.3304 21.951 82.6359 22.7601 82.735 23.7179C82.8341 24.6756 82.6277 25.7902 82.1158 27.0617ZM79.4655 26.17C79.9278 25.1132 80.0599 24.2463 79.8618 23.5692C79.6801 22.8757 79.3086 22.3638 78.7472 22.0336C78.2022 21.7033 77.5335 21.5464 76.7409 21.5629C75.9482 21.5629 75.1804 21.7281 74.4373 22.0583C73.6942 22.3721 73.0337 22.8509 72.4558 23.4949C71.8944 24.1224 71.5641 24.8903 71.465 25.7985C71.3659 26.5581 71.4485 27.1773 71.7127 27.6562C71.9934 28.135 72.3815 28.4901 72.8769 28.7212C73.3722 28.9359 73.9337 29.0432 74.5612 29.0432C75.2052 29.0267 75.8409 28.9029 76.4684 28.6717C77.1124 28.4405 77.7069 28.1185 78.2518 27.7057C78.8132 27.2764 79.2673 26.7645 79.6141 26.17H79.4655ZM97.0763 25.1049C96.7131 25.9801 96.5314 26.6076 96.5314 26.9874C96.5314 27.7965 97.3488 28.2011 98.9836 28.2011H102.674L101.683 30.7523H98.4634C97.1754 30.7523 96.2094 30.6202 95.5654 30.356C94.9214 30.0918 94.4178 29.6212 94.0545 28.9442C93.7903 29.1093 93.5096 29.2909 93.2124 29.4891C92.6179 29.8854 92.1886 30.1578 91.9244 30.3065C91.2473 30.6697 90.3474 30.8514 89.2245 30.8514C88.2007 30.8514 87.4246 30.7936 86.8962 30.678C86.3678 30.5624 85.8889 30.3477 85.4596 30.034C84.4193 29.2579 83.8991 28.1681 83.8991 26.7645C83.8991 25.9719 84.2459 24.6508 84.9394 22.8014L87.6393 15.7422H90.5868L87.6393 23.594C87.1439 24.8985 86.8962 25.7902 86.8962 26.2691C86.8962 27.6066 87.8374 28.2754 89.7199 28.2754C90.2813 28.2754 90.8015 28.1515 91.2804 27.9039C91.7592 27.6562 92.5684 27.103 93.7077 26.2443L97.7946 15.7422H100.668L97.0763 25.1049ZM106.092 30.9505H103.244L108.99 15.9899H111.789L109.659 21.6373L117.437 21.5877L119.691 16.1385H122.514L118.848 25.1792C118.386 26.3021 118.155 26.9626 118.155 27.1608C118.155 28.0855 118.939 28.5479 120.508 28.5479H124.273L123.257 31.0248H120.186C118.981 31.0248 118.163 30.9835 117.734 30.9009C117.305 30.8018 116.867 30.5789 116.421 30.2322C115.595 29.6047 115.183 28.7955 115.183 27.8048C115.183 27.2764 115.538 26.1618 116.248 24.4609L116.545 23.7426H108.866L108.346 25.1792L106.092 30.9505ZM139.184 31.0495H132.323C130.061 31.0495 128.451 30.711 127.493 30.034C126.816 29.5716 126.271 28.9276 125.858 28.102C125.462 27.2599 125.264 26.3847 125.264 25.4765C125.264 24.4362 125.536 23.272 126.081 21.984C126.642 20.696 127.344 19.5897 128.186 18.665C129.095 17.6907 130.135 16.9229 131.307 16.3614C132.496 15.8 133.669 15.5193 134.825 15.5193C136.228 15.5193 137.384 15.9073 138.292 16.6834C139.2 17.4595 139.655 18.4503 139.655 19.6557C139.655 20.5474 139.366 21.4308 138.788 22.306H135.716C136.476 21.3153 136.856 20.5144 136.856 19.9034C136.856 19.375 136.649 18.9374 136.236 18.5906C135.824 18.2274 135.312 18.0457 134.701 18.0457C133.578 18.0457 132.389 18.5494 131.134 19.5566C130.226 20.2832 129.483 21.1749 128.905 22.2317C128.343 23.272 128.063 24.2628 128.063 25.204C128.063 25.815 128.211 26.3929 128.508 26.9379C128.822 27.4663 129.227 27.8626 129.722 28.1268C130.3 28.4405 131.373 28.5974 132.942 28.5974H140.175L139.184 31.0495ZM143.197 30.9752H140.323L146.862 15.9651H149.785L143.197 30.9752ZM150.132 23.3959L154.888 31.1734H151.717L146.763 22.95L155.655 16.0394H160.213L150.132 23.3959ZM172.176 25.1049C171.813 25.9801 171.632 26.6076 171.632 26.9874C171.632 27.7965 172.449 28.2011 174.084 28.2011H177.774L176.784 30.7523H173.564C172.276 30.7523 171.31 30.6202 170.666 30.356C170.022 30.0918 169.518 29.6212 169.155 28.9442C168.89 29.1093 168.61 29.2909 168.313 29.4891C167.718 29.8854 167.289 30.1578 167.025 30.3065C166.347 30.6697 165.448 30.8514 164.325 30.8514C163.301 30.8514 162.525 30.7936 161.996 30.678C161.468 30.5624 160.989 30.3477 160.56 30.034C159.519 29.2579 158.999 28.1681 158.999 26.7645C158.999 25.9719 159.346 24.6508 160.04 22.8014L162.739 15.7422H165.687L162.739 23.594C162.244 24.8985 161.996 25.7902 161.996 26.2691C161.996 27.6066 162.938 28.2754 164.82 28.2754C165.381 28.2754 165.902 28.1515 166.381 27.9039C166.859 27.6562 167.669 27.103 168.808 26.2443L172.895 15.7422H175.768L172.176 25.1049ZM192.14 25.1049C191.777 25.9801 191.596 26.6076 191.596 26.9874C191.596 27.7965 192.413 28.2011 194.048 28.2011H197.738L196.748 30.7523H193.528C192.24 30.7523 191.274 30.6202 190.63 30.356C189.986 30.0918 189.482 29.6212 189.119 28.9442C188.854 29.1093 188.574 29.2909 188.276 29.4891C187.682 29.8854 187.253 30.1578 186.988 30.3065C186.311 30.6697 185.411 30.8514 184.289 30.8514C183.265 30.8514 182.489 30.7936 181.96 30.678C181.432 30.5624 180.953 30.3477 180.524 30.034C179.483 29.2579 178.963 28.1681 178.963 26.7645C178.963 25.9719 179.31 24.6508 180.004 22.8014L182.703 15.7422H185.651L182.703 23.594C182.208 24.8985 181.96 25.7902 181.96 26.2691C181.96 27.6066 182.902 28.2754 184.784 28.2754C185.345 28.2754 185.866 28.1515 186.344 27.9039C186.823 27.6562 187.632 27.103 188.772 26.2443L192.859 15.7422H195.732L192.14 25.1049ZM195.509 7.98944C195.162 9.22789 194.601 10.2269 193.825 10.9865C193.065 11.7296 192 12.1011 190.63 12.1011C188.813 12.1011 187.674 11.9442 187.211 11.6305C187.013 11.4984 186.832 11.3333 186.666 11.1351C186.518 10.9205 186.386 10.6975 186.27 10.4664C186.171 10.2187 186.097 9.97923 186.047 9.74805C185.998 9.50036 185.973 9.27743 185.973 9.07928C185.973 8.78205 186.055 8.41877 186.221 7.98944L188.004 7.81605C187.987 7.89862 187.979 7.97292 187.979 8.03897C187.979 8.08851 187.979 8.12979 187.979 8.16282C187.979 8.67472 188.194 9.08754 188.623 9.40128C189.069 9.69851 189.672 9.84712 190.431 9.84712C191.984 9.84712 193.065 9.1701 193.676 7.81605L195.509 7.98944Z" fill="#FF0000"/>
</svg>
